<svg width="14" height="11" viewBox="0 0 14 11" fill="none" xmlns="http://www.w3.org/2000/svg">
<path d="M13.5306 2.03063L5.53063 10.0306C5.46095 10.1005 5.37816 10.156 5.28699 10.1939C5.19583 10.2317 5.09809 10.2512 4.99938 10.2512C4.90067 10.2512 4.80293 10.2317 4.71176 10.1939C4.6206 10.156 4.53781 10.1005 4.46813 10.0306L0.968128 6.53063C0.898364 6.46087 0.843023 6.37804 0.805267 6.28689C0.76751 6.19574 0.748077 6.09804 0.748077 5.99938C0.748077 5.90072 0.76751 5.80302 0.805267 5.71187C0.843023 5.62072 0.898364 5.53789 0.968128 5.46813C1.03789 5.39837 1.12072 5.34302 1.21187 5.30527C1.30302 5.26751 1.40072 5.24808 1.49938 5.24808C1.59804 5.24808 1.69574 5.26751 1.78689 5.30527C1.87804 5.34302 1.96086 5.39837 2.03063 5.46813L5 8.4375L12.4694 0.969379C12.6103 0.828483 12.8014 0.749329 13.0006 0.749329C13.1999 0.749329 13.391 0.828483 13.5319 0.969379C13.6728 1.11028 13.7519 1.30137 13.7519 1.50063C13.7519 1.69989 13.6728 1.89098 13.5319 2.03188L13.5306 2.03063Z" fill="#3A3A33"/>
</svg>
